<?xml version="1.0" standalone="no"?><!DOCTYPE svg PUBLIC "-//W3C//DTD SVG 1.1//EN" "http://www.w3.org/Graphics/SVG/1.1/DTD/svg11.dtd"><svg class="icon" height="512" viewBox="0 0 1024 1024" version="1.1" xmlns="http://www.w3.org/2000/svg"><path d="M512 0c282.77 0 512 229.23 512 512S794.77 1024 512 1024 0 794.77 0 512 229.23 0 512 0z" fill="#1A91A1" /><path d="M607.562 186.072c23.038 41.08 52.598 80.458 88.496 116.346 35.898 35.898 75.276 65.458 116.346 88.496 14.188 4.618 20.452-12.702 9.478-20.268-38.816-21.902-76.062-49.956-110.074-83.97-34.012-34.012-62.068-71.268-83.97-110.084-9.154-11.88-26.448-4.222-20.268 9.478h-0.008z" fill="#807D7D" /><path d="M606.222 602.944l-46.778 57.984 32.452-68.21 14.326 10.226z" fill="#FFFFFF" /><path d="M888.586 216.86L841.64 169.914 596.764 565.882l-4.868 26.836 14.318 10.226 19.934-14.402L888.586 216.86z m-97.982-97.982l46.946 46.946-401.778 249.024-26.77-23.98 381.602-272v0.01z" fill="#20D0C2" /><path d="M943.856 166.442l-51.518-51.306-51.306-51.518c-3.528-3.538-8.674-3.04-12.59-0.25L761.108 111.22c-3.916 2.79-3.27 9.062 0.25 12.59l61.152 61.152 61.152 61.152c3.528 3.528 9.81 4.166 12.59 0.258l47.85-67.332c2.78-3.916 3.288-9.062-0.25-12.59v-0.008z" fill="#FF5B61" /><path d="M872.864 134.61c-10.216-10.208-26.448-10.54-36.258-0.73-9.81 9.81-9.486 26.05 0.73 36.258 10.208 10.216 26.448 10.54 36.258 0.73 9.81-9.81 9.486-26.05-0.73-36.266v0.008z" fill="#EC4B53" /><path d="M867.312 140.162c-7.02-7.02-18.18-7.242-24.932-0.498-6.744 6.744-6.522 17.902 0.498 24.922 7.02 7.02 18.18 7.242 24.932 0.498 6.746-6.744 6.524-17.902-0.498-24.922z" fill="#FFFFFF" /><path d="M867.312 140.162a19.724 19.724 0 0 0-1.69-1.506l-24.24 24.24c0.462 0.592 0.96 1.154 1.506 1.7s1.108 1.044 1.69 1.506l24.24-24.24a18.172 18.172 0 0 0-1.506-1.7z" fill="#ECF0F1" /><path d="M951.106 79.73l-17.246-17.246c-3.622-3.622-8.618-3.548-12.148-1.006l-48.322 34.668 44.064 44.064 34.668-48.322c2.54-3.538 2.614-8.526-1.006-12.148l-0.01-0.01zM470.136 342.842l-20.128-28.544-97.512 66.732c8.23-1.34 5.838 8.276 5.838 8.276 5.56-0.434 7.694 3.63 7.694 3.63s3.122 3.38 0.766 8.37c0 0 9.976 1.146 5.828 8.276l97.52-66.732-0.006-0.008z" fill="#FF5B61" /><path d="M470.136 342.842l-20.128-28.544 11.888-8.13 20.12 28.544-11.88 8.13z" fill="#FFFFFF" /><path d="M491.992 315.674l-8.508-12.064c-3.196-4.536-6.022-8.102-9.072-6.004l-12.516 8.564 20.12 28.544 12.516-8.564c3.066-2.098 0.656-5.94-2.54-10.476z" fill="#20D0C2" /><path d="M345.29 414.018l-6.568-9.312 13.764-23.676c8.23-1.34 5.838 8.276 5.838 8.276 5.562-0.434 7.694 3.63 7.694 3.63s3.122 3.38 0.766 8.37c0 0 9.976 1.146 5.828 8.276l-27.324 4.444v-0.008z" fill="#FED198" /><path d="M345.29 414.018l-3.288-4.656-18.864 12.904 22.152-8.258v0.01z" fill="#807D7D" /><path d="M338.732 404.716l3.28 4.656-18.864 12.904 15.584-17.56z" fill="#666666" /><path d="M470.136 342.842l-5.838-8.276-97.512 66.732s9.976 1.146 5.828 8.276l97.522-66.732zM455.836 322.574l-5.838-8.276-97.512 66.732c8.23-1.34 5.838 8.276 5.838 8.276l97.512-66.732z" fill="#EC4B53" /><path d="M491.964 315.638l-15.786 10.798 5.828 8.276 12.516-8.564c3.058-2.096 1.534-4.702-0.592-7.714l-1.976-2.798h0.01zM474.404 297.606l-12.526 8.564 5.838 8.276 15.786-10.808-1.976-2.798c-2.116-3.012-4.066-5.332-7.122-3.234z" fill="#15BDB1" /><path d="M366.786 401.306l-24.776 8.064 3.288 4.656 27.324-4.434c4.148-7.132-5.828-8.276-5.828-8.276l-0.008-0.01zM358.324 389.316l-16.314 20.054-3.28-4.656 13.764-23.676c8.23-1.34 5.838 8.276 5.838 8.276h-0.008z" fill="#F0B97D" /><path d="M732.87 265.044c-5.34-5.348-14.078-5.348-19.418 0l-40.146 40.146c-5.34 5.34-5.34 14.078 0 19.418 5.34 5.348 14.088 5.34 19.426 0l40.138-40.138c5.348-5.348 5.348-14.078 0-19.426z" fill="#FBB429" /><path d="M450.672 402.738l-26.66-26.66a3.332 3.332 0 0 0-4.702 0l-4.24 4.24a3.344 3.344 0 0 0 0 4.712l26.65 26.66a3.344 3.344 0 0 0 4.712 0l4.24-4.24a3.332 3.332 0 0 0 0-4.702v-0.01z" fill="#FFFFFF" /><path d="M730.43 276.904l-9.422-9.422c-1.506-1.506-3.696-1.782-4.878-0.61-1.174 1.182-0.906 3.372 0.61 4.878l9.422 9.422c1.506 1.506 3.696 1.774 4.878 0.61 1.174-1.174 0.896-3.372-0.61-4.878z m-40.996 41.006l-9.422-9.422c-1.506-1.506-3.704-1.774-4.878-0.61-1.174 1.174-0.906 3.372 0.6 4.878l9.422 9.422c1.506 1.506 3.704 1.782 4.878 0.61 1.174-1.174 0.898-3.372-0.6-4.878z m10.246-10.254c1.506 1.506 1.774 3.696 0.61 4.878-1.174 1.174-3.372 0.906-4.878-0.61l-9.422-9.422c-1.506-1.506-1.782-3.696-0.6-4.878 1.174-1.174 3.372-0.906 4.878 0.61l9.422 9.422h-0.01z m10.252-10.254l-9.422-9.422c-1.506-1.506-3.704-1.782-4.878-0.61-1.174 1.174-0.906 3.372 0.6 4.878l9.422 9.422c1.506 1.506 3.696 1.782 4.878 0.61 1.174-1.174 0.896-3.372-0.61-4.878h0.01z m10.254-10.254c1.506 1.506 1.774 3.696 0.61 4.878-1.174 1.174-3.372 0.906-4.878-0.61l-9.422-9.422c-1.506-1.506-1.782-3.696-0.6-4.878 1.174-1.174 3.372-0.906 4.878 0.61l9.422 9.422h-0.01z" fill="#F5A209" /><path d="M427.08 370.6l-20.1-26.918c-2.3-3.086-6.724-3.75-9.838-1.488l-5.968 4.35a6.92 6.92 0 0 0-1.468 9.728l20.1 26.918a7.128 7.128 0 0 0 9.848 1.488l5.968-4.35a6.908 6.908 0 0 0 1.468-9.718l-0.01-0.01z" fill="#FFFFFF" /><path d="M936.336 77.244a2.86 2.86 0 0 0-4.018 0l-34.206 34.206a2.844 2.844 0 0 0 0 4.018 2.844 2.844 0 0 0 4.018 0l34.206-34.206a2.844 2.844 0 0 0 0-4.018zM944.39 85.346a3.02 3.02 0 0 0-4.092 0.498L909.648 123.08a2.688 2.688 0 0 0 0.472 3.898l0.01 0.01a3.03 3.03 0 0 0 4.092-0.498l30.65-37.236a2.7 2.7 0 0 0-0.472-3.908h-0.01zM928.234 69.19a3.02 3.02 0 0 1-0.498 4.092L890.5 103.932a2.7 2.7 0 0 1-3.908-0.472 3.04 3.04 0 0 1 0.498-4.102l37.236-30.65a2.7 2.7 0 0 1 3.908 0.472v0.01z" fill="#EC4B53" /><path d="M146.646 271.398l499.566 499.566H146.646V271.398z m84.164 203.18v212.224h212.224L230.81 474.578z" fill="#FBB429" /><path d="M146.646 271.398l7.344 7.344v485.1h485.1l7.122 7.122H146.646V271.398z" fill="#F5A209" /><path d="M155.772 728.768h6.078v33.818h-6.078v-33.818z m444.844 18.106h6.088v15.714h-6.088v-15.714z m-16.47-18.106h6.078v33.818h-6.078v-33.818z m-16.48 18.106h6.078v15.714h-6.078v-15.714z m-16.48-18.106h6.078v33.818h-6.078v-33.818z m-16.47 18.106h6.078v15.714h-6.078v-15.714z m-16.48-18.106h6.078v33.818h-6.078v-33.818z m-16.48 18.106h6.078v15.714h-6.078v-15.714z m-16.47-18.106h6.078v33.818h-6.078v-33.818z m-16.48 18.106h6.078v15.714h-6.078v-15.714z m-16.48-18.106h6.078v33.818h-6.078v-33.818z m-16.48 18.106h6.078v15.714h-6.078v-15.714z m-16.47-18.106h6.078v33.818h-6.078v-33.818z m-16.48 18.106h6.078v15.714h-6.078v-15.714z m-16.48-18.106h6.078v33.818h-6.078v-33.818z m-16.47 18.106h6.078v15.714h-6.078v-15.714z m-16.48-18.106h6.078v33.818h-6.078v-33.818z m-16.472 18.106h6.078v15.714h-6.078v-15.714z m-16.48-18.106h6.078v33.818h-6.078v-33.818z m-16.478 18.106h6.078v15.714h-6.078v-15.714z m-16.472-18.106h6.078v33.818h-6.078v-33.818z m-16.48 18.106h6.078v15.714h-6.078v-15.714z m-16.47-18.106h6.078v33.818h-6.078v-33.818z m-16.48 18.106h6.078v15.714h-6.078v-15.714z m-16.48-18.106h6.078v33.818h-6.078v-33.818z m-16.47 18.106h6.078v15.714h-6.078v-15.714z m-16.48-18.106h6.078v33.818h-6.078v-33.818z m-16.48 18.106h6.078v15.714h-6.078v-15.714zM171.486 343.036v-6.078h-15.714v6.078h15.714z m18.106 16.48v-6.078h-33.82v6.078h33.82z m-18.106 16.47v-6.078h-15.714v6.078h15.714z m18.106 16.48v-6.078h-33.82v6.078h33.82z m-18.106 16.48v-6.078h-15.714v6.078h15.714z m18.106 16.47v-6.078h-33.82v6.078h33.82z m-18.106 16.48v-6.078h-15.714v6.078h15.714z m18.106 16.47v-6.078h-33.82v6.078h33.82z m-18.106 16.48v-6.078h-15.714v6.078h15.714z m18.106 16.48v-6.078h-33.82v6.078h33.82z m-18.106 16.47v-6.078h-15.714v6.078h15.714z m18.106 16.48v-6.088h-33.82v6.088h33.82z m-18.106 16.472v-6.078h-15.714v6.078h15.714z m18.106 16.478v-6.078h-33.82v6.078h33.82z m-18.106 16.48v-6.088h-15.714v6.088h15.714z m18.106 16.472v-6.078h-33.82v6.078h33.82z m-18.106 16.48v-6.078h-15.714v6.078h15.714z m18.106 16.47v-6.078h-33.82v6.078h33.82z m-18.106 16.48v-6.078h-15.714v6.078h15.714z m18.106 16.48v-6.078h-33.82v6.078h33.82z m-18.106 16.47v-6.078h-15.714v6.078h15.714z m18.106 16.48v-6.078h-33.82v6.078h33.82z m-18.106 16.47v-6.078h-15.714v6.078h15.714z m18.106 16.48v-6.078h-33.82v6.078h33.82z" fill="#FFFFFF" /><path d="M59.148 828.866h905.694v117.262H59.148v-117.262z" fill="#FBB429" /><path d="M72.312 870.094h6.078v-33.828h-6.078v33.828z m461.396 0h6.078v-33.828h-6.078v33.828z m411.892-18.106h6.078v-15.714H945.6v15.714z m-16.478 18.106h6.078v-33.828h-6.078v33.828z m-16.472-18.106h6.078v-15.714h-6.078v15.714z m-16.48 18.106h6.078v-33.828h-6.078v33.828z m-16.478-18.106h6.078v-15.714h-6.078v15.714z m-16.472 18.106h6.078v-33.828h-6.078v33.828z m-16.48-18.106h6.078v-15.714h-6.078v15.714z m-16.478 18.106h6.078v-33.828h-6.078v33.828z m-16.48-18.106h6.078v-15.714h-6.078v15.714z m-16.48 18.106h6.078v-33.828h-6.078v33.828z m-16.472-18.106h6.078v-15.714h-6.078v15.714z m-16.478 18.106h6.078v-33.828h-6.078v33.828z m-16.472-18.106h6.078v-15.714h-6.078v15.714z m-16.48 18.106h6.078v-33.828H731.4v33.828z m-16.478-18.106h6.078v-15.714h-6.078v15.714z m-16.472 18.106h6.078v-33.828h-6.078v33.828z m-16.48-18.106h6.078v-15.714h-6.078v15.714z m-16.47 18.106h6.078v-33.828h-6.078v33.828z m-16.48-18.106h6.078v-15.714h-6.078v15.714z m-16.47 18.106h6.078v-33.828h-6.078v33.828z m-16.48-18.106h6.078v-15.714h-6.078v15.714z m-16.48 18.106h6.078v-33.828h-6.078v33.828z m-16.47-18.106h6.078v-15.714h-6.078v15.714z m-16.48 18.106h6.078v-33.828h-6.078v33.828z m-16.48-18.106h6.078v-15.714h-6.078v15.714z m-33.024 0h6.088v-15.714h-6.088v15.714z m-16.47 18.106h6.078v-33.828h-6.078v33.828z m-16.48-18.106h6.078v-15.714h-6.078v15.714z m-16.48 18.106h6.078v-33.828h-6.078v33.828z m-16.47-18.106h6.078v-15.714h-6.078v15.714z m-16.48 18.106h6.078v-33.828h-6.078v33.828z m-16.48-18.106h6.078v-15.714h-6.078v15.714z m-16.47 18.106h6.078v-33.828h-6.078v33.828z m-16.48-18.106h6.078v-15.714h-6.078v15.714z m-16.48 18.106h6.078v-33.828h-6.078v33.828z m-16.48-18.106h6.078v-15.714h-6.078v15.714z m-16.48 18.106h6.078v-33.828h-6.078v33.828z m-16.47-18.106h6.078v-15.714h-6.078v15.714z m-16.48 18.106h6.078v-33.828h-6.078v33.828z m-16.47-18.106h6.078v-15.714h-6.078v15.714z m-16.48 18.106h6.078v-33.828h-6.078v33.828z m-16.48-18.106h6.078v-15.714h-6.078v15.714z m-16.47 18.106h6.078v-33.828h-6.078v33.828z m-16.48-18.106h6.078v-15.714h-6.078v15.714z m-16.47 18.106h6.078v-33.828h-6.078v33.828z m-16.48-18.106h6.078v-15.714h-6.078v15.714z m-16.472 18.106h6.078v-33.828h-6.078v33.828z m-16.48-18.106h6.078v-15.714h-6.078v15.714z m-16.478 18.106h6.078v-33.828h-6.078v33.828z m-16.472-18.106h6.078v-15.714h-6.078v15.714z m-16.48 18.106h6.078v-33.828h-6.078v33.828z m-16.478-18.106h6.078v-15.714h-6.078v15.714z" fill="#FFFFFF" /><path d="M59.148 828.866h905.694v6.966H59.148v-6.966z" fill="#F5A209" /></svg>