<?xml version="1.0" standalone="no"?>
<!DOCTYPE svg PUBLIC "-//W3C//DTD SVG 20010904//EN"
 "http://www.w3.org/TR/2001/REC-SVG-20010904/DTD/svg10.dtd">
<svg version="1.0" xmlns="http://www.w3.org/2000/svg"
 width="200.000000pt" height="200.000000pt" viewBox="0 0 200.000000 200.000000"
 preserveAspectRatio="xMidYMid meet">
<metadata>
Created by potrace 1.16, written by Peter Selinger 2001-2019
</metadata>
<g transform="translate(0.000000,200.000000) scale(0.100000,-0.100000)"
fill="#000000" stroke="none">
<path d="M630 1719 c-201 -110 -368 -203 -371 -207 -3 -4 -2 -50 2 -102 5 -52
20 -246 34 -430 15 -184 33 -364 41 -399 46 -205 223 -380 444 -440 202 -55
385 -39 565 49 167 82 279 224 320 405 14 61 83 911 74 918 -6 6 -739 407
-742 406 -1 0 -166 -90 -367 -200z m411 137 c24 -13 181 -99 349 -191 168 -92
309 -171 314 -175 11 -11 -51 -809 -70 -884 -45 -183 -180 -334 -361 -402
-191 -72 -364 -70 -560 6 -173 67 -304 213 -348 388 -15 59 -79 821 -73 869 3
24 38 46 353 219 193 106 351 193 351 193 1 1 21 -10 45 -23z"/>
<path d="M665 1672 c-176 -98 -328 -182 -338 -188 -18 -10 -18 -20 5 -300 l23
-289 642 -1 642 -2 5 32 c7 41 46 549 43 552 -1 1 -94 53 -207 114 -113 62
-265 146 -339 186 -74 41 -139 74 -145 73 -6 0 -155 -80 -331 -177z m23 -102
c-14 -42 -68 -69 -68 -35 0 19 47 65 66 65 10 0 11 -7 2 -30z m676 9 c28 -22
35 -59 12 -59 -17 0 -56 46 -56 66 0 19 13 17 44 -7z m-763 -26 c12 -33 4 -73
-16 -73 -20 0 -28 40 -16 73 6 15 13 27 16 27 3 0 10 -12 16 -27z m849 -36 c0
-31 -3 -38 -17 -35 -22 4 -29 48 -13 79 16 29 30 8 30 -44z m-591 4 c7 -5 11
-13 8 -18 -4 -6 6 -22 21 -36 21 -20 37 -26 67 -25 22 1 41 -4 43 -10 3 -9 10
-8 25 3 12 8 31 12 44 8 18 -4 32 2 54 23 16 15 27 34 25 40 -5 12 50 31 60
21 8 -8 -16 -58 -26 -52 -16 10 -51 -27 -39 -41 6 -8 9 -54 7 -113 -3 -99 -3
-101 20 -101 26 0 30 -17 5 -23 -10 -3 -3 -5 15 -6 19 -1 31 -5 27 -11 -3 -5
1 -10 9 -10 9 0 16 -4 16 -10 0 -5 -11 -10 -25 -10 -20 0 -25 -5 -25 -25 0
-14 5 -25 10 -25 17 0 11 -22 -12 -47 -24 -26 -58 -31 -58 -9 0 8 11 23 25 34
17 13 25 29 24 48 0 16 -3 23 -6 17 -9 -23 -23 -14 -24 15 0 24 -1 25 -9 7 -8
-18 -9 -17 -9 6 -2 46 -16 51 -139 49 -28 -1 -56 1 -61 5 -15 9 -41 -24 -41
-51 0 -14 -4 -22 -10 -19 -5 3 -10 -1 -10 -9 0 -22 -17 -20 -23 2 -3 9 -5 3
-6 -15 -1 -22 7 -40 25 -58 26 -26 25 -45 -2 -45 -16 0 -64 47 -64 61 0 5 6 9
14 9 9 0 12 8 9 24 -4 18 -13 26 -32 29 -25 4 -25 4 -4 12 13 4 20 11 17 16
-3 5 7 9 23 10 15 0 22 3 16 6 -22 8 -14 23 12 23 l25 0 0 112 c0 88 -3 115
-16 129 -9 10 -22 15 -30 12 -8 -3 -14 -1 -14 3 0 5 -3 19 -6 32 -5 17 -2 22
12 22 11 0 25 -4 33 -9z m-179 -20 c0 -18 -42 -61 -61 -61 -27 0 -24 25 7 49
27 22 54 28 54 12z m715 -16 c30 -29 32 -45 6 -45 -19 0 -61 43 -61 61 0 17
31 8 55 -16z m-835 -25 c13 -24 10 -75 -5 -75 -16 0 -35 49 -28 73 7 28 19 28
33 2z m930 -19 c0 -37 -23 -72 -37 -57 -11 11 -7 64 7 80 21 26 30 18 30 -23z
m-860 -46 c0 -28 -35 -69 -50 -60 -16 10 -12 30 11 59 26 33 39 33 39 1z m792
8 c21 -24 31 -60 19 -67 -14 -9 -49 26 -57 57 -7 32 14 38 38 10z m-882 -43
c21 -21 27 -55 11 -65 -12 -7 -51 43 -51 66 0 25 15 24 40 -1z m976 -7 c-11
-47 -66 -79 -66 -39 0 20 40 66 57 66 11 0 14 -7 9 -27z m-876 -41 c0 -31 -27
-75 -41 -67 -15 10 -10 57 8 77 23 25 33 22 33 -10z m774 6 c17 -23 21 -60 9
-71 -13 -14 -43 27 -43 60 0 38 12 42 34 11z m-857 -52 c22 -19 25 -27 16 -37
-14 -14 -56 9 -73 41 -9 17 -8 20 9 20 11 0 33 -11 48 -24z m963 14 c0 -17
-47 -60 -65 -60 -26 0 -17 38 13 54 32 18 52 20 52 6z m-860 -64 c0 -45 -31
-74 -44 -40 -8 20 21 87 34 79 5 -3 10 -21 10 -39z m726 27 c19 -25 18 -83 -1
-83 -20 0 -34 38 -28 73 6 32 11 33 29 10z m-803 -45 c24 -12 21 -38 -5 -38
-21 0 -68 36 -68 52 0 9 44 1 73 -14z m906 -14 c-14 -14 -34 -24 -51 -24 -25
0 -28 2 -18 20 10 19 67 41 83 32 5 -2 -2 -15 -14 -28z m-139 -35 c0 -14 -7
-32 -15 -39 -22 -19 -38 29 -23 71 10 30 12 31 25 14 7 -11 13 -31 13 -46z
m-642 22 c5 -30 -6 -71 -18 -71 -14 0 -23 46 -16 76 8 30 30 27 34 -5z m72
-83 c0 -32 -6 -34 -32 -11 -18 16 -25 63 -11 77 12 11 43 -37 43 -66z m510 38
c0 -13 -9 -34 -20 -47 -17 -21 -21 -22 -30 -9 -13 20 -13 20 10 58 22 36 40
35 40 -2z m-645 1 c20 -15 13 -37 -12 -37 -18 0 -73 31 -73 42 0 13 65 9 85
-5z m299 -8 c-3 -5 0 -16 6 -24 7 -8 8 -15 3 -15 -12 0 -34 46 -26 54 9 9 24
-4 17 -15z m502 2 c-21 -24 -65 -36 -79 -22 -18 18 13 41 56 41 39 0 40 -1 23
-19z m-366 1 c0 -10 -135 -142 -144 -142 -9 0 12 37 25 45 5 4 14 18 19 31 5
13 16 24 23 24 7 0 24 11 37 25 24 25 40 32 40 17z m-353 -66 c-5 -15 -52 -19
-77 -6 -26 14 -26 28 3 32 30 5 79 -12 74 -26z m663 13 c0 -14 -40 -30 -68
-27 -34 4 -36 30 -2 38 30 7 70 1 70 -11z m-587 -36 c4 -3 2 -12 -4 -20 -13
-15 -85 -18 -94 -3 -12 19 81 41 98 23z m248 -10 c13 -16 12 -17 -3 -4 -10 7
-18 15 -18 17 0 8 8 3 21 -13z m243 6 c34 -16 23 -29 -23 -29 -37 0 -68 19
-54 33 10 11 49 8 77 -4z m-404 -33 c0 -17 -22 -26 -66 -26 -38 0 -42 7 -16
26 23 18 82 18 82 0z m311 4 c31 -17 22 -30 -20 -30 -37 0 -68 19 -54 33 10
10 52 8 74 -3z m-121 -10 c0 -5 -4 -10 -10 -10 -5 0 -10 5 -10 10 0 6 5 10 10
10 6 0 10 -4 10 -10z m-700 -40 c0 -5 -4 -10 -10 -10 -5 0 -10 5 -10 10 0 6 5
10 10 10 6 0 10 -4 10 -10z m30 0 c0 -5 -5 -10 -11 -10 -5 0 -7 5 -4 10 3 6 8
10 11 10 2 0 4 -4 4 -10z m95 0 c3 -5 1 -10 -4 -10 -6 0 -11 5 -11 10 0 6 2
10 4 10 3 0 8 -4 11 -10z m35 0 c0 -5 -4 -10 -10 -10 -5 0 -10 5 -10 10 0 6 5
10 10 10 6 0 10 -4 10 -10z m30 0 c0 -5 -5 -10 -11 -10 -5 0 -7 5 -4 10 3 6 8
10 11 10 2 0 4 -4 4 -10z m95 0 c3 -5 1 -10 -4 -10 -6 0 -11 5 -11 10 0 6 2
10 4 10 3 0 8 -4 11 -10z m35 0 c0 -5 -5 -10 -11 -10 -5 0 -7 5 -4 10 3 6 8
10 11 10 2 0 4 -4 4 -10z m30 0 c0 -5 -5 -10 -11 -10 -5 0 -7 5 -4 10 3 6 8
10 11 10 2 0 4 -4 4 -10z m65 0 c3 -5 1 -10 -4 -10 -6 0 -11 5 -11 10 0 6 2
10 4 10 3 0 8 -4 11 -10z m65 0 c0 -5 -5 -10 -11 -10 -5 0 -7 5 -4 10 3 6 8
10 11 10 2 0 4 -4 4 -10z m30 0 c0 -5 -5 -10 -11 -10 -5 0 -7 5 -4 10 3 6 8
10 11 10 2 0 4 -4 4 -10z m65 0 c3 -5 1 -10 -4 -10 -6 0 -11 5 -11 10 0 6 2
10 4 10 3 0 8 -4 11 -10z m35 0 c0 -5 -4 -10 -10 -10 -5 0 -10 5 -10 10 0 6 5
10 10 10 6 0 10 -4 10 -10z m30 0 c0 -5 -5 -10 -11 -10 -5 0 -7 5 -4 10 3 6 8
10 11 10 2 0 4 -4 4 -10z m95 0 c3 -5 1 -10 -4 -10 -6 0 -11 5 -11 10 0 6 2
10 4 10 3 0 8 -4 11 -10z m35 0 c0 -5 -5 -10 -11 -10 -5 0 -7 5 -4 10 3 6 8
10 11 10 2 0 4 -4 4 -10z m30 0 c0 -5 -5 -10 -11 -10 -5 0 -7 5 -4 10 3 6 8
10 11 10 2 0 4 -4 4 -10z m65 0 c3 -5 1 -10 -4 -10 -6 0 -11 5 -11 10 0 6 2
10 4 10 3 0 8 -4 11 -10z m30 0 c3 -5 1 -10 -4 -10 -6 0 -11 5 -11 10 0 6 2
10 4 10 3 0 8 -4 11 -10z m35 0 c0 -5 -5 -10 -11 -10 -5 0 -7 5 -4 10 3 6 8
10 11 10 2 0 4 -4 4 -10z m30 0 c0 -5 -5 -10 -11 -10 -5 0 -7 5 -4 10 3 6 8
10 11 10 2 0 4 -4 4 -10z m65 0 c3 -5 1 -10 -4 -10 -6 0 -11 5 -11 10 0 6 2
10 4 10 3 0 8 -4 11 -10z m30 0 c3 -5 1 -10 -4 -10 -6 0 -11 5 -11 10 0 6 2
10 4 10 3 0 8 -4 11 -10z m35 0 c0 -5 -5 -10 -11 -10 -5 0 -7 5 -4 10 3 6 8
10 11 10 2 0 4 -4 4 -10z m95 0 c3 -5 1 -10 -4 -10 -6 0 -11 5 -11 10 0 6 2
10 4 10 3 0 8 -4 11 -10z m35 0 c0 -5 -4 -10 -10 -10 -5 0 -10 5 -10 10 0 6 5
10 10 10 6 0 10 -4 10 -10z m30 0 c0 -5 -5 -10 -11 -10 -5 0 -7 5 -4 10 3 6 8
10 11 10 2 0 4 -4 4 -10z"/>
<path d="M894 1335 c0 -55 1 -76 3 -47 2 29 2 74 0 100 -2 26 -3 2 -3 -53z"/>
<path d="M1124 1335 c0 -55 1 -76 3 -47 2 29 2 74 0 100 -2 26 -3 2 -3 -53z"/>
<path d="M934 1249 c-3 -5 29 -9 72 -9 43 0 74 3 70 8 -11 10 -135 12 -142 1z"/>
<path d="M443 803 c-26 -10 -13 -43 23 -58 20 -8 34 -20 32 -27 -7 -19 -34
-21 -51 -3 -20 19 -26 19 -23 -2 3 -22 69 -29 86 -9 16 20 6 33 -36 51 -19 8
-34 19 -34 25 0 20 31 23 50 5 19 -17 20 -17 20 1 0 15 -7 20 -27 21 -16 1
-34 -1 -40 -4z"/>
<path d="M545 750 c0 -53 2 -60 20 -60 15 0 17 2 6 9 -21 13 -5 41 23 41 28 0
40 24 26 51 -7 13 -21 19 -43 19 l-32 0 0 -60z m63 23 c3 -19 -1 -23 -22 -23
-21 0 -26 5 -26 26 0 21 4 25 23 22 14 -2 23 -11 25 -25z"/>
<path d="M659 759 c2 -36 -1 -54 -10 -60 -10 -6 -4 -8 16 -8 17 0 24 3 18 6
-18 7 -16 43 2 43 9 0 21 -11 27 -25 6 -14 15 -25 20 -25 5 0 4 10 -3 21 -8
15 -8 28 -1 43 15 33 -3 56 -41 56 l-32 0 4 -51z m59 14 c3 -19 -1 -23 -22
-23 -21 0 -26 5 -26 26 0 21 4 25 23 22 14 -2 23 -11 25 -25z"/>
<path d="M768 803 c7 -3 12 -24 12 -53 0 -29 -5 -50 -12 -53 -7 -3 1 -5 17 -5
17 0 24 2 18 5 -8 3 -13 24 -13 53 0 29 5 50 13 53 6 3 -1 5 -18 5 -16 0 -24
-2 -17 -5z"/>
<path d="M828 803 c7 -3 12 -24 12 -53 0 -29 -5 -50 -12 -53 -7 -3 1 -6 17 -6
20 0 26 2 17 8 -8 5 -12 23 -10 47 l3 39 18 -33 c10 -19 21 -31 24 -28 11 10
-47 86 -65 85 -10 0 -12 -3 -4 -6z"/>
<path d="M906 753 c0 -79 21 -81 26 -4 2 49 0 61 -12 61 -12 0 -15 -13 -14
-57z"/>
<path d="M977 792 c-41 -45 -7 -104 56 -100 31 3 37 7 37 26 0 18 -5 22 -27
21 -17 -1 -21 -3 -10 -6 23 -6 22 -20 -4 -28 -15 -5 -28 -1 -43 14 -19 20 -20
23 -6 49 19 32 42 39 64 17 15 -15 16 -15 16 2 0 27 -60 30 -83 5z"/>
<path d="M1088 803 c7 -3 12 -24 12 -53 0 -29 -5 -50 -12 -53 -7 -3 1 -5 17
-5 17 0 24 2 18 5 -21 8 -15 43 7 43 11 0 20 4 20 9 0 5 -8 8 -17 7 -12 0 -19
7 -21 22 -3 18 1 22 21 22 14 0 28 -6 30 -12 3 -8 6 -6 6 5 1 14 -7 17 -46 16
-27 0 -42 -3 -35 -6z"/>
<path d="M1195 750 c0 -47 3 -60 15 -60 12 0 15 13 15 60 0 47 -3 60 -15 60
-12 0 -15 -13 -15 -60z"/>
<path d="M1259 783 c8 -32 7 -65 -3 -82 -5 -7 7 -11 38 -11 37 0 46 3 45 18 0
10 -3 12 -6 5 -2 -7 -16 -13 -29 -13 -17 0 -24 6 -24 20 0 13 7 20 20 20 11 0
20 5 20 11 0 6 -9 8 -20 4 -16 -5 -20 -2 -20 19 0 21 5 26 24 26 13 0 27 -6
29 -12 3 -8 6 -6 6 5 1 14 -7 17 -43 17 -44 0 -44 -1 -37 -27z"/>
<path d="M1365 750 l0 -60 43 0 c34 0 42 3 41 18 0 10 -3 12 -6 5 -2 -7 -16
-13 -30 -13 -24 0 -25 2 -21 55 2 44 0 55 -12 55 -12 0 -15 -13 -15 -60z"/>
<path d="M1475 750 l0 -60 32 0 c39 0 63 23 63 60 0 37 -24 60 -63 60 l-32 0
0 -60z m66 40 c37 -20 19 -90 -23 -90 -15 0 -18 9 -18 50 0 52 7 58 41 40z"/>
<path d="M400 556 c0 -7 7 -19 15 -26 8 -7 13 -16 10 -20 -8 -13 70 -123 121
-171 93 -86 214 -138 370 -160 205 -29 442 53 571 196 52 57 100 135 83 135
-5 0 -10 4 -10 10 0 5 7 7 15 4 8 -4 15 -2 15 4 0 6 3 17 6 26 6 14 -51 16
-595 16 -504 0 -601 -2 -601 -14z m60 -36 c0 -5 -5 -10 -11 -10 -5 0 -7 5 -4
10 3 6 8 10 11 10 2 0 4 -4 4 -10z m30 0 c0 -5 -5 -10 -11 -10 -5 0 -7 5 -4
10 3 6 8 10 11 10 2 0 4 -4 4 -10z m30 0 c0 -5 -5 -10 -11 -10 -5 0 -7 5 -4
10 3 6 8 10 11 10 2 0 4 -4 4 -10z m60 0 c0 -5 -5 -10 -11 -10 -5 0 -7 5 -4
10 3 6 8 10 11 10 2 0 4 -4 4 -10z m90 0 c0 -5 -5 -10 -11 -10 -5 0 -7 5 -4
10 3 6 8 10 11 10 2 0 4 -4 4 -10z m90 0 c0 -5 -5 -10 -11 -10 -5 0 -7 5 -4
10 3 6 8 10 11 10 2 0 4 -4 4 -10z m725 0 c3 -5 1 -10 -4 -10 -6 0 -11 5 -11
10 0 6 2 10 4 10 3 0 8 -4 11 -10z m60 0 c3 -5 1 -10 -4 -10 -6 0 -11 5 -11
10 0 6 2 10 4 10 3 0 8 -4 11 -10z m-491 -90 l31 -1 -24 -19 c-17 -15 -22 -26
-17 -45 7 -28 -5 -33 -24 -10 -11 13 -15 13 -33 0 -31 -22 -38 -19 -27 11 9
21 6 29 -12 45 l-23 18 28 1 c20 0 30 7 39 28 l11 27 10 -27 c9 -22 17 -28 41
-28z m-184 -110 c0 -15 7 -20 27 -20 24 0 25 -1 10 -18 -10 -11 -14 -26 -10
-41 5 -21 4 -22 -16 -10 -17 11 -25 12 -42 1 -19 -12 -20 -11 -14 8 4 14 1 28
-11 41 -16 18 -16 19 9 19 20 0 27 5 27 20 0 11 5 20 10 20 6 0 10 -9 10 -20z
m319 -21 l26 0 -22 -15 c-18 -13 -20 -20 -12 -41 9 -25 9 -25 -14 -10 -22 14
-26 14 -41 -1 -17 -16 -17 -15 -14 10 2 18 -4 32 -17 42 -19 15 -19 15 7 16
19 0 29 7 34 23 l7 22 10 -22 c7 -15 19 -23 36 -24z"/>
</g>
</svg>
